<?xml version="1.0" encoding="UTF-8"?>
<svg id="Layer_1" xmlns="http://www.w3.org/2000/svg" version="1.1" viewBox="0 0 480.6 478.2">
  <defs>
    <style>
      /* 60:30:10 Rule Applied */
      /* 30% Secondary: Deep Brand Blue */
      .st0, .st1 {
        fill: #1D4ED8;
      }

      /* 10% Accent: Refined Slate Grey */
      .st2 {
        fill: #94A3B8;
      }

      /* 60% Primary: Absolute White */
      .st3 {
        fill: #FFFFFF;
      }

      .st1 {
        opacity: .48;
      }
    </style>
  </defs>
  <path class="st3" d="M295.66,322.74l7.6-9.89c.28-.36.78-.49,1.19-.29,4.84,2.31,9.51,5.38,13.55,9.33.41.4.38,1.09-.07,1.46-7.52,6.11-15.49,10.4-24.17,14.28-2.53,1.13-6.25,2.01-8.03,3.9-3.7,3.93-7.7,7.57-12.41,10.18l-16.09,8.93c-.98.54-.41,2.05.68,1.8,4.26-.95,8.27-2.32,12.59-3.83,18.91-6.61,36.46-16.28,52.53-28.12.02-.02.05-.04.07-.06l8.96-7.82c.35-.31.43-.83.19-1.24-1.02-1.75-2.09-2.87-3.61-4.19-6.44-5.62-13.27-10.53-20.91-14.47-.68-.35-.71-1.31-.05-1.7,14.01-8.28,23.25-16.87,31.15-30.92.16-.29.46-.47.78-.49,6.6-.4,12.02-3.59,15.52-8.93.15-.24.41-.39.69-.43,7.94-1,10.82-5.69,11.37-13.68.63-9.15.93-18.17-.63-26.99-.93-5.3-4.43-8.81-9.69-8.93-.36,0-.69-.21-.85-.53-3.17-6.15-9.24-9.36-16.08-10.27-.33-.04-.61-.25-.75-.55-4.77-10.42-11.53-20.81-19.86-28.86-.14-.14-.24-.31-.28-.5-.58-2.92-.67-6.37-.6-9.54,0-.4.27-.75.65-.89l30.33-10.82c.63-.23,1.3.24,1.3.91l.05,18.26c0,.17-.04.33-.12.47l-4.46,8.02c-.08.14-.12.3-.12.47l-.09,17.07c0,1.6,1.41,2.94,2.92,2.93l11.13-.07c.52,0,.94-.42.96-.94.28-6.87.65-13.16-.14-19.87-.29-2.48-2.93-5.38-3.96-7.63-.06-.13-.08-.27-.08-.41v-21.25c0-.41.25-.78.64-.92l18.01-6.41c1.67-.6,2.31-2.63,1.28-4.07h0c-.11-.15-.26-.27-.43-.34l-12.24-4.92-119.5-44.53c-.22-.08-.46-.08-.68,0l-133.37,49.22c-.92.34-1.79,1.78-1.66,2.46s1.18,1.9,1.97,2.17l12.52,4.28,42.69,15.42c.39.14.65.52.64.94l-.3,11.66c0,.24-.1.47-.27.64-7.73,7.92-13.31,17.19-17.92,27.01-.12.25-.34.44-.61.52l-7.58,2.18c-4.1,1.18-6.4,4.48-8.53,7.92-.11.18-.27.32-.47.4-2.55.98-6.57,1.57-7.95,4.2-2.94,5.63-2.89,12.04-2.96,18.3-.07,6.64-.05,13.03,1.23,19.4.98,4.89,4.98,7.64,9.91,7.71.33,0,.63.17.81.44,3.9,6,8.98,8.5,16.32,9.33.32.04.61.23.75.52,6.79,13.41,17.82,24.03,31.52,30.84.7.35.74,1.34.05,1.72l-7.99,4.47c-6.43,3.6-11.94,8.23-16.92,14.09-.34.4-.3,1.01.09,1.36,9.75,8.93,19.95,15.89,31.21,22.14,13.31,7.39,27.22,13.54,41.98,17.14,1.11.27,1.7-1.27.69-1.81-6.43-3.43-12.5-6.62-18.3-10.9-.02-.02-.05-.03-.07-.05l-9.82-8.46c-.08-.07-.16-.12-.25-.16-11.06-4.67-21.55-9.68-31.18-17.26-.46-.36-.5-1.07-.08-1.48,3.93-3.75,8.41-6.64,13.47-9.14.43-.21.95-.08,1.22.31,3.51,4.89,7.15,9.32,11.63,13.46,1.14,1.05,2.31,2.1,3.64,2.91.95.58,1.97-.65,1.23-1.48l-6.94-7.81c-1.91-2.15-3.22-4.64-4.48-7.31-.26-.54.03-1.19.61-1.36l10.18-2.89c.47-.13.96.11,1.15.56,3.02,7.16,7.3,12.95,12.94,18.29,8.34,7.31,18.17,12.18,29.13,14.39.13.03.27.03.41,0,10.88-2.17,20.83-6.94,28.96-14.41,5.86-5.22,10.06-11.06,12.88-18.44.18-.48.71-.74,1.2-.59l10.13,3.27c.56.18.84.82.58,1.35-2.43,4.92-5.35,8.86-9.2,12.55-.9.86-1.75,1.72-2.49,2.67-.66.85.33,1.98,1.26,1.45,3.2-1.84,5.89-4.07,8.07-6.91Z"/>
  <polygon points="481.95 0 483.15 0 483.15 477.6 481.95 476.82 481.95 0"/>
  <path d="M293.62,323.04c-2.84,3.69-6.54,6.35-11.11,8.48,4.1-7.12,10.94-11.14,13.95-19.25l-12.07-3.9c-6.54,18.13-23.85,30.14-42.36,33.76-18.59-3.64-35.53-15.65-42.61-33.52l-12.1,3.43c2.08,6.2,10.31,14.21,14.48,19.06-8.9-2.66-14.02-11.62-19.55-18.46-5.71,2.75-10.71,5.95-15.01,10.28,9.91,8.01,20.74,13.19,32.19,18.02,9.88,9.68,21.82,16.34,34.29,22.77-30.01-6.25-57.65-20.85-80.57-41.37,7.09-9.18,17.27-14.93,27.14-20.2-14.63-6.85-26.39-17.94-33.43-32.12-7.8-.79-13.09-3.37-17.12-9.83-14.14.14-11.17-17.35-11.67-27.1-.01-9.04-.12-21.28,11.21-22.62,2.92-6.79,10.07-9.01,16.69-10.5,4.7-10.07,10.4-19.59,18.37-27.67l.32-12.74-43.35-15.66c-1.78-1.05-14.36-3.65-14.49-6.45-.13-.68.74-2.12,1.66-2.46l133.71-49.35c5.28,2.03,132.05,48.97,132.34,49.68,1.11,1.36,2.03,2.58.09,3.87,0,0-19.86,7.08-19.86,7.08v22.15c6.5,8.3,4.27,18.63,4.15,28.62-20.71.55-13.82.99-14.89-20.17,0,0,4.7-8.46,4.7-8.46l-.06-19.88-32.26,11.51c-.1,3.45-.03,7.31.64,10.5,8.56,8.2,15.48,18.88,20.3,29.55,7.25.83,13.7,4.2,16.87,10.86,16.14.93,10.48,24.71,10.91,35.92-.56,8.14-3.54,12.85-11.82,13.73-3.58,5.71-9.29,9.07-16.29,9.33-8.25,14.84-17.91,23.63-32.95,32.28,9.75,5.37,20.02,10.98,26.51,20.18-22.52,20.07-50.65,35.51-80.41,41.31,9.9-5.48,26.29-13.63,33.79-22.18,11.19-5.66,23.02-9.93,32.75-18.58-4.41-4.52-9.63-7.94-15.03-10.43l-8.08,10.51ZM140.15,133.55c14.13-5.26,42.97-16.04,56.97-21.32-18.23,4.71-49.69,17.15-67.91,23.16,4.16,2,7.35-.5,10.95-1.84ZM231.72,130.44c19.44-2.02,37.69,1.94,56.58,4.83-36.77-14.06-80.44-11.22-114.6,8.94l.1,20.69c1.86.01,3.39-.16,4.64-.62v-16.29c3.79-11.2,41.63-16.39,53.28-17.54ZM219.14,159.92c-1.31-.44-2.47-1.84-2.54-3.18l-.81-16.48c-3.68,1.07-17.47,3.16-20.32,5.78l.02,17.76c14.82,1.67,29.3,4.92,43.72,9.68-.99-8.2-11.69-10.78-20.08-13.57ZM348.69,175.98c2,2.74,6.16,1.78,6.48-1.6-.31-5.57-9.19-2.99-6.48,1.6ZM333.18,244.88c-.93.11-1.6.1-2.54-.04,2.95-2.06,5.83-3.48,4.55-7.84-5.95-.83-7.81,4.32-10.94.96-2.54-3.57,3.17-7.3,5.5-3.24l5.85.18-.59-5.81c-5.25-1.21-12.29,2-8.9-4.61,3.87-2.67,4.85,3.61,8.9,1.84-2.94-20.5-11-39.65-27.04-53.18-21.64-2.75-46.11,2.31-66.03,10.93-20.23-9.21-44.07-13.51-66.18-11.11-15.55,12.47-25.8,33.51-27,53.79,4.15.9,4.11-4.59,8.56-2.22,1.06.57,1.22,4.23.03,4.24l-8.88.04-.23,5.87c4.92,3.49,7.77-5.41,11.24.32.52,1.17.02,2.99-1.12,3.67-3.09,1.86-4.57-2.33-10.28-2.12-.84,89.86,175.29,93.71,186.41,9.66.1-.77-.56-1.43-1.33-1.34ZM140.28,234.44c.81-9.83,1.93-18.08,4.25-27.15-2.56.16-5.75,1.05-7.69,2.82-1.41,7.59-2.16,14.06-2.98,21.9l6.43,2.42ZM349.53,232.19c-.57-8.12-1.16-14.92-3.12-22.38-2.23-1.48-5.08-2.2-7.44-2.27,2.69,9.18,3.59,17,4.3,26.5l6.26-1.85ZM126.49,226.39l1.26-7.73c-5.02-.22-8.68,3.1-8.13,8.46l6.88-.73ZM364.13,226.9c.21-4.79-2.56-8-7.8-8.14l.9,8.03,6.9.11ZM263.21,325.96c1.47-2.08,5.4-5.49.37-5.97-15.06,3.82-30.29,2.49-45.41.08-.04,8.09,19.69,17.45,24.94,16.17,7.46-1.61,14.16-5.28,20.1-10.27Z"/>
  <path class="st3" d="M334.7,244.64c-9.07,85.63-187.43,82.36-186.59-8.08,5.71-.21,7.18,3.98,10.28,2.12,1.14-.68,1.63-2.5,1.12-3.67-3.48-5.74-6.33,3.17-11.24-.32l.23-5.87,8.88-.04c1.18,0,1.03-3.67-.03-4.24-4.45-2.37-4.41,3.12-8.56,2.22,1.2-20.29,11.45-41.32,27-53.79,22.11-2.4,45.95,1.9,66.18,11.11,19.92-8.62,44.39-13.68,66.03-10.93,16.04,13.53,24.1,32.68,27.04,53.18-4.04,1.77-5.03-4.51-8.9-1.83-3.38,6.61,3.65,3.4,8.9,4.61l.59,5.81-5.85-.18c-2.33-4.07-8.05-.33-5.5,3.24,3.13,3.36,4.99-1.79,10.94-.96,1.28,4.36-1.61,5.78-4.55,7.84,1.37.2,2.18.14,4.05-.2M306.57,258.09c18.65-9.33,8.85-34.62,19.5-38.1l-.26-7.01c-22.58-6.07-53.34-11.8-73.85,3.39-5.87-.58-14.26-.12-19.98-.08-20.98-14.76-50.26-10-73.56-3.21l.19,7.18c3.19,1.06,4.38,3.3,4.57,6.26.49,7.52,1.69,14.89,4.82,21.62,4.98,10.71,15.69,13.35,27.18,13.48,25.64.28,36.43-13.26,39.96-37.78,3.95-2.26,9.52-1.93,13.78-.05,2.08,31.8,29.48,45.52,57.64,34.29ZM162.22,261.97c-.07-8.89-1.13-11.19-6.69-15.59-.62-.5-2.26-.29-2.21.55,7.93,6.76,4.81,10.27,8.9,15.04ZM178.57,282.14c-5.67-4.67-8.99-10.66-10.61-18.17-1.4,1.37-.59,3.46-.29,5.2.77,5.88,1.99,16,10.9,12.96ZM315.5,266.4c-2.08,5.27-2.95,9.94-8.03,12.87,7.41,4.18,9.28-6.75,8.03-12.87ZM257.58,269.83l-2.01.2c-8.14,6.34-19.12,6.26-27.34.1-.63-.44-2.85-.44-2.96.3-2.44,15.75,38.45,14.16,32.3-.59Z"/>
  <path class="st2" d="M219.14,159.92c8.39,2.79,19.09,5.37,20.08,13.57-10.73-3.26-20.75-6.4-31.43-7.93l-12.29-1.76-.02-17.76c1.2-.78,3.21-1.9,4.54-2.21l15.77-3.57.81,16.48c.07,1.34,1.23,2.74,2.54,3.18Z"/>
  <path class="st0" d="M263.21,325.96c-5.95,4.99-12.64,8.67-20.1,10.27-6.14,1.32-17.57-6.17-23.35-11.47-1.18-1.08-1.62-2.81-1.59-4.7l6.78.82c12.88,2.42,25.82,2.02,38.63-.9l2.15.54c.49.12.28,1.84-.03,2.24l-2.49,3.19Z"/>
  <path class="st2" d="M231.72,130.44c-16.05,1.06-38.01,6.16-51.65,13.81-.9.51-1.62,2.78-1.62,3.73v16.29c-1.25.45-2.78.63-4.64.62l-.1-20.69c31.93-19.04,71.81-22.11,107.02-11.77l7.58,2.83c-3.45.24-6.13-.69-9.3-1.4-15.62-3.5-31.16-4.49-47.28-3.43Z"/>
  <path class="st0" d="M140.28,234.44l-6.43-2.42c.83-7.84,1.57-14.31,2.98-21.9,1.94-1.77,5.13-2.67,7.69-2.82-2.32,9.07-3.44,17.31-4.25,27.15Z"/>
  <path class="st0" d="M349.53,232.19l-6.26,1.85c-.71-9.5-1.61-17.32-4.3-26.5,2.36.06,5.2.79,7.44,2.27,1.96,7.46,2.55,14.26,3.12,22.38Z"/>
  <path class="st2" d="M140.15,133.55c-3.59,1.34-6.78,3.84-10.95,1.84l39.45-13.93,8.97-3.01c6.52-2.19,12.52-5.02,19.5-6.22l-25.75,9.67-31.22,11.65Z"/>
  <path class="st0" d="M126.49,226.39l-6.88.73c.12-1.86.22-4.15,1.04-5.5,1.42-2.33,4.75-2.81,7.09-2.96l-1.26,7.73Z"/>
  <path class="st0" d="M364.13,226.9l-6.9-.11-.9-8.03c5.24.14,8.01,3.35,7.8,8.14Z"/>
  <path class="st0" d="M348.69,175.98c-1.52-2.4.42-4.15,2.57-4.8,1.4-.42,3.95.91,3.91,3.2-.02,1.08-1.24,2.68-2.13,3.08-1.17.53-3.56-.22-4.35-1.48Z"/>
  <path d="M306.57,258.09c-9.2,4.64-24.48,4.57-34.3,1.17-5.97-2.07-11-5.46-14.61-10.7-5.09-7.4-7.81-15.68-8.74-24.75-4.26-1.88-9.83-2.2-13.78.05-3.53,24.53-14.33,38.06-39.96,37.78-11.49-.13-22.2-2.77-27.18-13.48-3.13-6.73-4.33-14.1-4.82-21.62-.19-2.96-1.38-5.2-4.57-6.26l-.19-7.18,11.42-2.93c19.99-5.13,44.84-6.1,62.14,6.14,3.05.38,6.8-.46,9.93-.33l10.06.41c13.56-10.42,37.8-11.59,53.7-7.98l20.15,4.58.26,7.01c-3.64,1.27-5.06,3.74-5.27,7.28-.7,11.77-3.63,25.47-14.23,30.82ZM220.05,250.83c7.54-6.97,13.25-23.98,7.36-31.94-2.82-3.81-7.13-5.22-11.5-6.53-8.85-2.66-17.54-3.24-26.77-2.14-8.74,1.04-20.75,3.46-21.84,11.77s.23,16.83,3.5,24.69c1.89,4.56,5.49,7.84,10.24,9.59,12.03,4.44,29.39,3.44,39.02-5.44ZM312.57,247.93c3.66-7.01,4.58-14.7,4.5-22.6-.06-5.18-2.5-9.38-7.33-11.46-12.99-5.6-33.55-5.44-46.96.43-5.04,2.21-8.86,6.44-8.72,12.28.31,12.88,6.9,25.87,19.55,29.93,12.67,4.07,32.64,3.53,38.95-8.58Z"/>
  <path d="M257.58,269.83c1.97-.19,1.1,6.31-3.58,8.92-11.8,6.58-30.14,1.75-28.73-8.33.1-.74,2.33-.74,2.96-.3,8.22,6.16,19.2,6.24,27.34-.1l2.01-.2Z"/>
  <path class="st0" d="M178.57,282.14c-4.92,1.9-8.91-1.61-9.62-5.64l-1.28-7.33c-.31-1.75-1.11-3.84.29-5.2,1.34,4.73,2.55,8.74,4.85,12.35l5.76,5.82Z"/>
  <path class="st0" d="M315.5,266.4c.76,4.26.29,10.42-2.16,12.38-1.6,1.28-3.49,2.48-5.87.48,5.07-2.93,5.95-7.6,8.03-12.87Z"/>
  <path class="st0" d="M162.22,261.97c-1.63-1.14-1.96-2.79-2.26-4.74-.59-3.75-2.98-6.51-5.57-9.19l-1.06-1.1c-.2-.2.43-.67.7-.77.35-.13,1.17-.06,1.51.21,5.56,4.41,6.61,6.7,6.69,15.59Z"/>
  <path class="st3" d="M220.05,250.83c-9.62,8.89-26.99,9.88-39.02,5.44-4.75-1.75-8.34-5.04-10.24-9.59-3.27-7.86-4.61-16.24-3.5-24.69s13.11-10.73,21.84-11.77c9.23-1.1,17.92-.52,26.77,2.14,4.37,1.31,8.68,2.71,11.5,6.53,5.88,7.96.18,24.97-7.36,31.94Z"/>
  <path class="st3" d="M312.57,247.93c-6.32,12.11-26.28,12.65-38.95,8.58-12.65-4.07-19.24-17.06-19.55-29.93-.14-5.84,3.67-10.07,8.72-12.28,13.41-5.87,33.97-6.03,46.96-.43,4.83,2.08,7.27,6.28,7.33,11.46.08,7.91-.84,15.59-4.5,22.6Z"/>
</svg>